<svg id="Layer_1" xmlns="http://www.w3.org/2000/svg" viewBox="0 0 139.4 97.3"><style>.st0{fill:#FFFFFF;}</style><path class="st0" d="M87.1 30.5C77.5 30.4 70 37.8 70 47.4c0 9.5 7.6 17.2 17.1 17.1 9.2-.1 16.8-7.6 17-16.8.2-9.4-7.5-17.2-17-17.2zM67.1 33.1c-9.2 0-18.1-.1-27 .1-.8 0-2.2 1.2-2.2 1.9-.2 9.1-.1 18.1-.1 27.2h29.3V33.1zM112.5 51.7c9.3-.9 18.1-1.7 26.8-2.5v-1c-8.9-.8-17.8-1.7-26.9-2.5.1 2.2.1 3.7.1 6zM28.1 46.3C18.4 47.2 9.2 48 0 48.9v.7c9.3.9 18.6 1.7 28.1 2.6v-5.9zM111.3 59.9h22.4c-7.5-2.1-14.2-4-21.2-6-.5 2.2-.8 3.8-1.2 6zM29.5 37.9c-7.4-.4-14.3-.8-21.3-1.1 0 .3-.1.6-.1.8 6.6 2 13.2 4 20.3 6.1.4-2.1.7-3.8 1.1-5.8zM132 37.3h-20.9c.5 2.3.8 3.8 1.3 5.9 6.5-2 12.6-3.8 19.6-5.9zM29.5 60.5c-.6-2.5-1-4.1-1.5-6-6.7 1.9-12.9 3.7-19.1 5.5.1.2.1.4.2.5h20.4zM69.3 0c-.2 0-.5 0-.7.1-.8 6-1.6 12-2.4 18.2h5.6C71 11.9 70.1 6 69.3 0zM68.4 97.3h.7c.8-6.1 1.6-12.3 2.4-18.8-2.3.1-3.7.2-5.6.3.9 6.5 1.7 12.5 2.5 18.5zM57.6 5.4c-.3.1-.5.1-.8.2.3 4.6.6 9.1 1 14.2 2.1-.5 3.7-1 5.6-1.4-2.1-4.7-3.9-8.9-5.8-13zM80 4.6c-2.2 5.2-3.9 9.3-5.8 13.7 2 .5 3.6.9 5.8 1.4V4.6zM57.8 77.6v15.2c2.2-5.4 3.9-9.4 5.7-13.8-2-.5-3.4-.8-5.7-1.4zM80.2 92c.3-.1.5-.1.8-.2-.3-4.6-.7-9.2-1.1-14.3-2 .5-3.7 1-5.6 1.5 2.1 4.6 4 8.8 5.9 13z"/><path d="M87.1 30.5c9.5.1 17.2 7.9 17 17.2-.2 9.2-7.8 16.7-17 16.8-9.5.1-17.1-7.6-17.1-17.1 0-9.6 7.5-17 17.1-16.9zM67.1 33.1v29.2H37.8c0-9-.1-18.1.1-27.2 0-.7 1.4-1.9 2.2-1.9 9-.2 17.9-.1 27-.1zM110.5 51.7v-6c9.1.9 18 1.7 26.9 2.5v1c-8.8.9-17.6 1.7-26.9 2.5zM31.1 46.3v5.9c-9.5-.9-18.8-1.8-28.1-2.6v-.7c9.2-.9 18.4-1.7 28.1-2.6zM109.3 59.9c.4-2.2.7-3.8 1.1-6 7 2 13.7 3.9 21.2 6h-22.3zM32.5 37.9c-.4 2-.7 3.7-1.1 5.8-7.1-2.1-13.7-4.1-20.3-6.1 0-.3.1-.6.1-.8 7 .3 13.9.7 21.3 1.1zM130 37.3c-7 2.1-13.1 3.9-19.7 5.9-.4-2-.8-3.5-1.3-5.9h21zM32.5 60.5H12.1c-.1-.2-.1-.4-.2-.5 6.2-1.8 12.4-3.6 19.1-5.5.5 1.8.9 3.5 1.5 6zM69.3 2c.8 6 1.6 11.9 2.5 18.3h-5.6c.8-6.2 1.6-12.2 2.4-18.2.2-.1.5-.1.7-.1zM68.4 94.3c-.8-6-1.6-12.1-2.5-18.5 1.9-.1 3.3-.2 5.6-.3-.8 6.5-1.6 12.6-2.4 18.8h-.7zM57.6 7.4c1.9 4.2 3.7 8.3 5.8 13-1.9.5-3.5.9-5.6 1.4-.4-5.1-.7-9.7-1-14.2.3-.1.6-.2.8-.2zM80 6.6v15.1c-2.2-.5-3.8-.9-5.8-1.4 1.8-4.4 3.5-8.5 5.8-13.7zM57.8 74.6c2.3.5 3.7.9 5.7 1.3-1.8 4.4-3.5 8.5-5.7 13.8V74.6zM80.2 89c-1.9-4.2-3.8-8.4-5.9-13 1.9-.5 3.5-.9 5.6-1.5.4 5.1.7 9.7 1.1 14.3-.3.1-.6.1-.8.2z"/></svg>