<svg id="Layer_1" xmlns="http://www.w3.org/2000/svg" viewBox="0 0 112.1 54.2"><style>.st0{fill:#FFFFFF;}</style><path d="M54.7 4.4c-11.4 0-20.6 9.2-20.6 20.6 0 11.4 9.2 20.6 20.6 20.6S75.3 36.4 75.3 25c0-11.3-9.2-20.6-20.6-20.6zm-8 24.7c.9-4-3-9-6-10 3 .9 8.8-2.1 9.7-6.8-.9 4.7 1.8 9.2 6.4 10.1-4.6-.8-9.1 2.7-10.1 6.7zm13.1 7.1c.4-2.5-1.4-5-3.9-5.5 2.5.5 5.2-1.2 5.7-3.7-.5 2.5 1.2 5 3.7 5.5-2.5-.5-5 1.2-5.5 3.7zm2.6-18.8c.3-1.6-.7-3.2-2.3-3.5 1.6.3 3.2-.8 3.5-2.4-.3 1.6.7 3.2 2.4 3.6-1.6-.3-3.2.7-3.6 2.3z"/><path d="M105.3 33.1C86 14.6 71.3 5.9 51.6 7.1 22.1 8.9 5.6 32.6 5.4 32.8L0 28.4C.9 27.3 18.7 2.1 51.1.1c21.8-1.3 38.3 8.1 59 28l-4.8 5z"/><path d="M105.3 25C86 43.5 71.3 49.2 51.6 48c-29.5-1.8-46-22.4-46.2-22.7L0 28.4C.9 29.5 18.7 52 51.1 54c21.8 1.3 38.8-4.4 59-25.9l-4.8-3.1zM94.5 3c-.2.2-.4.4-.6.5l-.9.6c-.3.2-.7.4-1.1.6-.5.2-.9.3-1.4.5-.5.1-.9.3-1.4.4l-1.5.3c-1 .2-2 .3-3 .3H82c-.8 0-1.4-.1-1.8-.1-.2 0-.3 0-.4-.1h-.2l.9 5.7c.9.5 1.6 1.4 2.1 2.6.4-.2.8-.4 1.3-.6.8-.4 1.7-.9 2.7-1.6 1-.6 2-1.3 2.9-2.1.5-.4.9-.8 1.4-1.2l1.2-1.2c.4-.4.7-.9 1-1.3.3-.4.5-.8.8-1.2.2-.4.4-.8.5-1.1.2-.3.2-.6.3-.8.1-.5.2-.7.2-.7s-.1.1-.4.5zM103.5 9c-.2.2-.4.4-.6.5l-.9.6c-.3.2-.7.4-1.1.6-.4.2-.9.3-1.3.5-.5.1-.9.3-1.4.4l-1.5.3c-1 .2-2 .3-3 .3h-2.6c-.8 0-1.4-.1-1.8-.1-.2 0-.3 0-.4-.1h-.2l.9 5.7c.9.5 1.6 1.4 2.1 2.6.4-.2.8-.4 1.3-.6.8-.4 1.7-.9 2.7-1.6 1-.6 2-1.3 2.9-2.1.5-.4.9-.8 1.4-1.2l1.2-1.2c.4-.4.7-.9 1-1.3.3-.4.5-.8.8-1.2.2-.4.4-.8.5-1.1.2-.3.2-.6.3-.8.1-.5.2-.7.2-.7s-.2.1-.5.5z"/><path d="M111.5 16c-.2.2-.4.4-.6.5l-.9.6c-.3.2-.7.4-1.1.6-.4.2-.9.3-1.3.5-.5.1-.9.3-1.4.4l-1.5.3c-1 .2-2 .3-3 .3h-2.6c-.8 0-1.4-.1-1.8-.1-.2 0-.3 0-.4-.1h-.2l.9 5.7c.9.5 1.6 1.4 2.1 2.6.4-.2.8-.4 1.3-.6.8-.4 1.7-.9 2.7-1.6 1-.6 2-1.3 2.9-2.1.5-.4.9-.8 1.4-1.2l1.2-1.2c.4-.4.7-.9 1-1.3.3-.4.5-.8.8-1.2.2-.4.4-.8.5-1.1.2-.3.2-.6.3-.8.1-.5.2-.7.2-.7s-.2.1-.5.5z"/><path class="st0" d="M61.5 27c-.5 2.5-3.1 4.1-5.7 3.7 2.5.5 4.3 3 3.8 5.5h.1c.5-2.5 2.9-4.2 5.5-3.7-2.5-.5-4.2-3-3.7-5.5zM63.6 11.5c-.3 1.6-1.9 2.7-3.5 2.4 1.6.3 2.7 1.9 2.3 3.5.3-1.6 1.9-2.7 3.6-2.4-1.6-.2-2.7-1.8-2.4-3.5zM46.7 29.1c1-4 5.5-7.5 10.1-6.6-4.7-.9-7.4-5.5-6.4-10.1-.9 4.6-6.7 7.6-9.7 6.8 3 .9 6.9 5.9 6 9.9z"/></svg>